<svg width="17" height="18" viewBox="0 0 17 18" fill="none" xmlns="http://www.w3.org/2000/svg">
<path d="M12.2402 5.66669V4.0278C12.2402 3.51711 12.1388 3.01141 11.9417 2.53959C11.7445 2.06777 11.4556 1.63906 11.0914 1.27795C10.7271 0.916829 10.2947 0.630375 9.8188 0.43494C9.3429 0.239505 8.83283 0.138916 8.31772 0.138916C7.8026 0.138916 7.29253 0.239505 6.81663 0.43494C6.34072 0.630375 5.90831 0.916829 5.54407 1.27795C5.17983 1.63906 4.8909 2.06777 4.69377 2.53959C4.49665 3.01141 4.39519 3.51711 4.39519 4.0278V7.91669C4.39519 8.06404 4.45422 8.20534 4.55931 8.30953C4.6644 8.41372 4.80693 8.47225 4.95555 8.47225C5.10416 8.47225 5.24669 8.41372 5.35178 8.30953C5.45687 8.20534 5.51591 8.06404 5.51591 7.91669V6.7778H9.9988V5.66669H5.51591V4.0278C5.51591 3.29109 5.8111 2.58455 6.33654 2.06362C6.86198 1.54269 7.57463 1.25003 8.31772 1.25003C9.0608 1.25003 9.77345 1.54269 10.2989 2.06362C10.8243 2.58455 11.1195 3.29109 11.1195 4.0278V7.88892C11.1195 8.03626 11.1786 8.17757 11.2836 8.28175C11.3887 8.38594 11.5313 8.44447 11.6799 8.44447C11.8285 8.44447 11.971 8.38594 12.0761 8.28175C12.1812 8.17757 12.2402 8.03626 12.2402 7.88892V6.7778H15.0421V16.7778H1.59338V6.7778H3.27446V5.66669H0.472656V16.8278C0.472656 17.1092 0.585419 17.3791 0.786137 17.5781C0.986855 17.7771 1.25909 17.8889 1.54295 17.8889H15.0925C15.3763 17.8889 15.6486 17.7771 15.8493 17.5781C16.05 17.3791 16.1628 17.1092 16.1628 16.8278V5.66669H12.2402Z" fill="#121212"/>
</svg>
